<svg width="231" height="241" viewBox="0 0 231 241" fill="none" xmlns="http://www.w3.org/2000/svg">
<path d="M126.822 171.5C126.831 171.51 136.822 183.382 136.822 184.5C136.822 185.5 129.033 183.791 129.033 185.5C129.033 187.209 133.5 191.5 133.5 191.5C133.5 191.5 139.322 196 139.322 197C139.322 197.999 130.834 197.001 130.822 197C130.834 197.009 143.283 207.001 142.533 208.5C141.783 210 141.5 208.5 133 215C124.5 221.5 126 226 123.016 226C120.033 226 119.016 219 113.016 215C107.016 211 102.516 210 102.016 208.5C101.497 206.943 113.47 197.052 113.533 197C113.472 197.009 106.5 197.996 106.5 197C106.5 196 111.322 191.5 111.322 191.5C111.328 191.494 116.322 186.999 116.322 185.5C116.322 184 109.322 185.25 108.822 184.5C108.322 183.75 119.322 172 119.322 172L123.322 167L126.822 171.5Z" fill="#FDF4F4"/>
<path d="M140.779 127.5C140.798 127.534 153.779 151.002 153.779 153.5C153.779 155.997 142.308 147.522 142.279 147.5L133.779 141L129.779 147.5L123.779 156L113.279 137L79.279 197L68.279 192.5L123.779 99.5L140.779 127.5Z" fill="#FDF4F4"/>
<path fill-rule="evenodd" clip-rule="evenodd" d="M122 5V49.296L117 49.5L112 50.5L103.539 31.027C98.9297 20.816 94.6157 12.011 93.9507 11.459L87.4997 13.847C87.4997 14.615 89.6887 19.913 92.3637 25.621C102.502 47.254 105 51.865 105 53C103 54.124 97.4996 58 97.4996 58C96.9602 58 87.8947 49.582 79.6437 41.737L64.6417 27.474L58.9997 32.455L66.4997 39.673C70.6247 43.642 77.9317 50.695 82.7377 55.346L91.4767 63.802L89.4217 67.125C87.4267 70.354 87.4996 70.5 87.4996 70.5C87.4996 70.5 91.4996 75 92.4996 75C92.9996 74 94.5357 72.867 97.4996 69.5C105.289 60.651 113.015 57.499 125 57.511C135.354 57.521 140.423 59.365 149.149 66.296C156.314 71.988 159.563 78.87 160.216 89.734C160.746 98.569 158.139 106.484 153.5 113C151.696 115.533 152 115 152 115L157 120C158.1 117.946 163.589 110.674 164.5 110.5C166.22 110.17 187.836 119.625 196.207 123.832C204.434 127.967 204.5 127.5 204.5 127.5C205.401 125.759 208.294 120.914 207.835 120.479C207.376 120.044 202.05 117.652 196 115.163C178.142 107.817 167.393 103.845 167.5 102.5C167.555 101.808 167.999 98.933 168.364 97.629L169.5 94H212.5V86.731H191.292L168.584 86.463L167.922 82.935C167.558 80.994 167.426 79.247 167.63 79.051C167.986 78.709 170.955 77.474 196.75 66.937C208.5 62.5 209.5 62 209.5 62C208.282 59.1599 206.5 55 206.5 55C201.504 57.155 180.392 65.006 174.964 67.039C164.31 71.029 163.195 70.957 160.5 66.098L159 63.394L190.924 32.581L188.538 30.04C187.225 28.643 186 28 186 28C186 28 177.745 35.254 169.5 43.5C161.256 51.746 154.825 58.999 154 59C153.175 59.002 149.741 56.48 148.203 55.245C144 53 145.406 52.999 146.954 48.619L151.5 37L162.5 10.5L157 8.5C157 8.5 155.443 12.27 151 22C148.238 28.05 144.516 37.682 142.5 42.492C138.335 51.746 139 51.5 133.5 50.5C133.5 50.5 128.5 50 128.5 49.296C128.5 45.5 128.5 39 128.5 39V5H122Z" fill="#D5932E"/>
<path fill-rule="evenodd" clip-rule="evenodd" d="M173 137.5L164 154.5L173 169.5L184.5 189.5L197.5 178L191.5 168L185.5 157.5L173 137.5Z" fill="#D5932E"/>
<path d="M52.2946 51.7911C53.5196 48.2341 57.0177 50.2155 59.0407 55.6115C61.6247 62.5064 67.7136 70.2174 72.4626 72.6115C74.6446 73.7115 76.5301 74.6352 76.6501 74.6642C76.7705 74.6946 76.599 76.3817 76.2692 78.4142C75.5102 83.0952 74.1185 83.1245 66.6305 78.6085C63.4418 76.6863 60.6001 75.1127 60.3141 75.1115C59.1471 75.1115 61.4049 79.9156 64.6989 84.4386C68.4868 89.6393 74.6155 94.0736 79.4303 95.0978C82.0423 95.6528 82.3899 96.1162 82.113 98.673C81.938 100.289 81.3873 102.026 80.8903 102.533C79.4233 104.028 69.421 100.075 65.4372 96.4249C58.7032 90.2559 57.9823 92.9676 63.9733 101.939C68.4522 108.645 74.0916 112.7 82.9303 115.571C89.8592 117.821 90.2323 118.187 88.9694 121.51C87.9844 124.099 87.7027 124.199 83.2507 123.532C77.2788 122.636 68.2691 118.161 64.528 114.232C61.366 110.912 59.453 111.013 60.527 114.445C61.6122 117.912 66.8981 125.333 70.818 128.894C74.4554 132.198 87.6115 139.111 90.2624 139.111C91.0463 139.111 92.2644 137.72 92.9684 136.021C93.6724 134.321 95.894 130.383 97.903 127.271C99.9129 124.159 102.925 119.137 104.598 116.111C106.271 113.086 108.493 109.192 109.536 107.458C111.556 104.098 120.473 88.6212 121.835 86.1115C123.157 83.6755 124.232 84.6683 128.022 91.8283C129.998 95.5592 132.972 100.862 134.632 103.611C139.424 111.551 148.246 126.93 152.831 135.337C155.149 139.587 157.489 143.338 158.032 143.673C159.64 144.667 161.422 142.551 167.378 132.571C170.482 127.37 173.468 123.114 174.014 123.111C174.56 123.111 176.227 125.171 177.718 127.687C179.21 130.202 181.942 134.59 183.788 137.437C185.634 140.283 188.952 145.987 191.159 150.111C193.367 154.236 195.718 158.286 196.382 159.111C197.047 159.936 198.866 162.861 200.424 165.611C201.982 168.361 203.567 170.836 203.945 171.111C205.065 171.928 206.93 175.868 206.93 177.419C206.93 178.211 205.13 180.827 202.93 183.234C200.731 185.64 198.932 187.903 198.93 188.266C198.93 189.419 185.578 198.673 181.43 200.396C179.23 201.309 172.535 203.888 166.551 206.129C150.983 211.958 140.022 218.487 140 218.5L134 224.5C132.721 225.695 130 230.861 130 230.861C129.984 230.879 128.611 232.37 127.5 233C126.129 233.777 123.621 234.111 123.621 234.111C123.621 234.111 118.223 233.874 116.455 230.861C113.645 226.072 109.04 219.682 104.5 217.5C102.329 216.456 93.5782 211.389 92.5358 210.865C91.4938 210.341 88.3438 209.112 85.5358 208.133C82.7278 207.154 78.1803 205.429 75.4303 204.299C72.6806 203.169 68.974 201.713 67.194 201.063C60.432 198.593 54.8529 194.19 52.9069 189.789C51.2439 186.03 50.9511 182.15 50.5221 158.193C50.2531 143.171 49.7737 130.621 49.4587 130.305C49.1416 129.991 46.7571 131.821 44.1579 134.373C38.972 139.465 25.8015 146.111 20.8952 146.111C18.6223 146.111 17.8322 145.563 17.3522 143.654C16.3792 139.776 17.1671 138.907 22.9811 137.436C34.145 134.612 44.7841 125.535 47.6071 116.425C48.254 114.338 48.5844 112.432 48.3415 112.19C48.0995 111.947 46.4447 113.13 44.6657 114.818C42.8867 116.506 39.9635 118.626 38.1706 119.53C34.5046 121.377 22.6927 125.204 22.193 124.706C22.015 124.528 21.4748 123.009 20.9938 121.329C20.0408 118.006 20.2538 117.843 29.0417 115.153C34.3865 113.517 45.0174 103.93 47.6237 98.3947C48.8297 95.8327 49.5797 93.352 49.2897 92.8829C48.9992 92.4146 47.0209 93.6049 44.8923 95.5275C38.6063 101.206 30.0068 104.819 28.6276 102.361C28.3966 101.949 27.9286 100.442 27.5876 99.0138C27.0337 96.6862 27.3614 96.2991 30.7301 95.2892C35.9232 93.733 44.9553 85.8682 47.7682 80.4513C50.2312 75.7074 49.9765 73.8739 47.1325 75.8859C44.5136 77.7388 38.6664 80.782 36.3532 81.4962C34.6253 82.0292 34.091 81.5402 33.1901 78.6046C32.1501 75.2147 32.2329 75.0064 35.2546 73.4435C43.5696 69.1445 48.4596 62.9301 52.2946 51.7911ZM119.322 172C119.29 172.034 108.323 183.751 108.822 184.5C109.322 185.25 116.322 184 116.322 185.5C116.322 187 111.322 191.5 111.322 191.5C111.3 191.52 106.5 196.002 106.5 197C106.5 197.995 113.468 197.009 113.533 197C113.461 197.06 101.498 206.944 102.016 208.5C102.516 210 107.016 211 113.016 215C119.016 219 120.033 226 123.016 226C126 226 124.5 221.5 133 215C141.5 208.5 141.783 210 142.533 208.5C143.282 207.002 130.849 197.022 130.822 197C130.822 197 139.321 198 139.322 197C139.322 196.001 133.516 191.513 133.5 191.5C133.5 191.5 129.033 187.209 129.033 185.5C129.033 183.791 136.822 185.5 136.822 184.5C136.822 183.383 126.848 171.531 126.822 171.5L123.322 167L119.322 172ZM122.821 102.111C122.347 102.111 120.554 104.924 118.835 108.361C117.117 111.799 114.713 115.962 113.494 117.611C112.275 119.262 108.79 125.112 105.749 130.611C97.2158 146.042 89.0682 160.11 86.8981 163.158C85.8162 164.677 84.9304 166.237 84.9303 166.624C84.9303 167.222 74.1895 185.031 70.6315 190.333C69.0036 192.759 70.8578 194.34 75.5026 194.491C79.1306 194.608 79.3089 194.439 83.3229 187.047C85.5829 182.887 88.4462 178.089 89.6862 176.386C90.9262 174.682 92.9931 171.017 94.279 168.241C95.5658 165.465 97.0905 162.613 97.6686 161.902C98.2466 161.192 100.394 157.461 102.44 153.611C111.775 136.047 112.323 135.514 113.93 137.611L115.93 140.611C115.946 140.647 121.817 153.923 122.786 154.522C124.083 155.323 126.357 152.339 129.386 145.861C130.865 142.7 132.551 140.112 133.132 140.111C133.713 140.111 135.896 141.574 137.983 143.361C146.726 150.85 151.93 154.302 151.93 152.612C151.93 150.932 150.603 148.409 141.41 132.611C138.529 127.661 133.361 118.773 129.926 112.861C126.493 106.95 123.296 102.113 122.821 102.111ZM173.142 139.122C172.751 139.128 170.694 142.442 168.571 146.486C164.404 154.423 164.379 155.717 168.281 161.507C169.464 163.261 173.355 169.947 176.93 176.364C180.757 183.233 184.062 188.046 184.968 188.071C186.676 188.115 195.93 179.163 195.93 177.465C195.929 176.206 189.046 163.492 186.155 159.41C185.064 157.871 181.849 152.674 179.012 147.861C176.176 143.051 173.536 139.119 173.142 139.122ZM62.611 132.142C59.8401 128.85 58.9565 128.428 58.8825 130.361C58.8565 131.052 58.8774 142.775 58.9284 156.414C59.0204 180.768 59.646 186.111 62.403 186.111C63.0364 186.111 65.7762 182.227 68.4919 177.48C77.5616 161.628 78.5966 159.937 79.6354 159.272C80.9814 158.411 85.9299 148.591 85.9303 146.778C85.9303 145.971 83.2873 144.42 79.6803 143.11C72.5025 140.503 66.283 136.506 62.611 132.142Z" fill="#1C3328"/>
</svg>
